<?xml version="1.0" encoding="UTF-8"?>
<svg id="Capa_1" data-name="Capa 1" xmlns="http://www.w3.org/2000/svg" viewBox="0 0 414.7 363.55">
  <defs>
    <style>
      .cls-1 {
        fill: #fff;
        stroke: #001c24;
        stroke-miterlimit: 10;
      }
    </style>
  </defs>
  <g id="Circuitos">
    <g id="inferior">
      <path class="cls-1" d="M220.55,307.38v-89.98c1.92-1.05,3.23-3.09,3.23-5.43,0-3.42-2.77-6.19-6.19-6.19s-6.19,2.77-6.19,6.19c0,2.36,1.32,4.4,3.26,5.45v89.95c-2.31,1.1-3.91,3.44-3.91,6.17,0,3.78,3.06,6.84,6.84,6.84s6.84-3.06,6.84-6.84c0-2.71-1.59-5.05-3.88-6.16Z"/>
      <path class="cls-1" d="M235.51,320.92c.11-10.48,1.29-128.48,1.29-135.32s-4.87-6.51-4.87-6.51c0,0-59.59-.65-62.84,0s1.95,5.86,1.95,5.86l59.1,1.05v8.72h-49.34l-.07.67c-1.58-4.19-5.61-7.18-10.35-7.18-6.11,0-11.07,4.96-11.07,11.07s4.96,11.07,11.07,11.07c5.46,0,9.98-3.95,10.89-9.14l47.7-1.27,1.15,120.81c-3.31,1.03-5.71,4.12-5.71,7.77,0,4.49,3.64,8.14,8.14,8.14s8.14-3.64,8.14-8.14c0-3.46-2.16-6.4-5.2-7.58ZM170.37,206.44c-3.94,0-7.14-3.2-7.14-7.14s3.2-7.14,7.14-7.14,7.14,3.2,7.14,7.14-3.2,7.14-7.14,7.14Z"/>
      <rect class="cls-1" x="200.34" y="250.71" width="5.86" height="46.22" rx="2.93" ry="2.93"/>
      <path class="cls-1" d="M249.48,304.46c.21-.4.34-.86.34-1.35v-59.9c0-1.62-1.31-2.93-2.93-2.93s-2.93,1.31-2.93,2.93v59.9c0,.57.17,1.1.45,1.55-2.56,1.09-4.36,3.63-4.36,6.59,0,3.96,3.21,7.16,7.16,7.16s7.16-3.21,7.16-7.16c0-3.16-2.05-5.84-4.9-6.79Z"/>
      <path class="cls-1" d="M302.23,238.99h-40.37c-1.62,0-2.93,1.31-2.93,2.93v66.41c0,.13.02.26.04.39-1.96,1.04-3.29,3.1-3.29,5.47,0,3.42,2.77,6.19,6.19,6.19s6.19-2.77,6.19-6.19c0-2.37-1.34-4.43-3.29-5.47.02-.13.04-.26.04-.39v-63.48h37.44c1.62,0,2.93-1.31,2.93-2.93s-1.31-2.93-2.93-2.93Z"/>
    </g>
    <g id="derecha">
      <path class="cls-1" d="M128.87,206.95l-1.45-2.6c-.38-.69-.27-1.55.29-2.11l31.58-31.99s.05-.05.07-.08c.44-.5,5.35-6.05,9.08-6.05s65.87.82,77.06.97c.96.01,1.73.78,1.75,1.74l1.23,57.4c.02.97.81,1.74,1.78,1.74h74.15c.98,0,1.78.8,1.78,1.78v2.84c0,.98-.8,1.78-1.78,1.78h-78.22s-3.54.76-4.19-6.4c-.58-6.33-.39-44.44-.34-53.21,0-.99-.8-1.79-1.8-1.79l-71.76.64s-1.87-1.06-7.77,5.65c-4.97,5.65-23.05,24.3-28.65,30.07-.83.86-2.25.67-2.83-.38Z"/>
      <path class="cls-1" d="M338.04,217.83c-7.19,0-13.02,5.83-13.02,13.02s5.83,13.02,13.02,13.02,13.02-5.83,13.02-13.02-5.83-13.02-13.02-13.02ZM338.04,238.01c-3.96,0-7.16-3.21-7.16-7.16s3.21-7.16,7.16-7.16,7.16,3.21,7.16,7.16-3.21,7.16-7.16,7.16Z"/>
      <path class="cls-1" d="M289.54,108.78s4.56-4.56,5.86-3.26,1.95,3.37-2.93,7.87c-4.88,4.5-31.58,31.85-31.58,31.85v64.2h71.67s3.85-.4,2.55,4.16c-1.3,4.56-1.95,3.2-10.09,3.23-8.14.03-69.34,1-69.34,1l-1.3-74.89,35.16-34.17Z"/>
      <path class="cls-1" d="M292.79,126.36s11.13-11.34,12.37-10.42c2.6,1.95,1.92,5.35-2.52,8.79-4.43,3.43-28.73,26.37-28.73,26.37v44.92l63.8.65s4.84,1.04,3.66,4.51c-1.18,3.48-1.77,2.44-9.17,2.46s-62.86-.46-62.86-.46l-1.24-53.11,24.68-23.71Z"/>
      <path class="cls-1" d="M350.41,187.23c-6.47,0-11.72,5.25-11.72,11.72s5.25,11.72,11.72,11.72,11.72-5.25,11.72-11.72-5.25-11.72-11.72-11.72ZM350.41,206.11c-3.96,0-7.16-3.21-7.16-7.16s3.21-7.16,7.16-7.16,7.16,3.21,7.16,7.16-3.21,7.16-7.16,7.16Z"/>
      <rect class="cls-1" x="262.52" y="47.9" width="7.16" height="57.29" rx="2.93" ry="2.93" transform="translate(189.55 342.65) rotate(-90)"/>
      <path class="cls-1" d="M235.25,93.63c0-5.93-4.81-10.74-10.74-10.74s-10.74,4.81-10.74,10.74c0,5.02,3.45,9.23,8.11,10.4-.03.17-.05.33-.05.51v29.95c0,.06.01.11.02.16-2.67,1.04-4.57,3.63-4.57,6.67,0,3.96,3.21,7.16,7.16,7.16s7.16-3.21,7.16-7.16c0-2.8-1.61-5.22-3.95-6.39.02-.14.04-.29.04-.44v-29.95c0-.22-.03-.43-.07-.63,4.42-1.33,7.64-5.43,7.64-10.28ZM224.51,100.16c-3.6,0-6.52-2.92-6.52-6.52s2.92-6.52,6.52-6.52,6.52,2.92,6.52,6.52-2.92,6.52-6.52,6.52Z"/>
    </g>
    <g id="izquierda">
      <path class="cls-1" d="M199.44,93.63c0-5.93-4.81-10.74-10.74-10.74s-10.74,4.81-10.74,10.74c0,5.02,3.45,9.23,8.11,10.4-.03.17-.05.33-.05.51v46.88c0,1.62,1.31,2.93,2.93,2.93s2.93-1.31,2.93-2.93v-46.88c0-.22-.03-.43-.07-.63,4.42-1.33,7.64-5.43,7.64-10.28ZM188.7,100.16c-3.6,0-6.52-2.92-6.52-6.52s2.92-6.52,6.52-6.52,6.52,2.92,6.52,6.52-2.92,6.52-6.52,6.52Z"/>
      <path class="cls-1" d="M135.89,76.88s-1.3-3.91,3.26-2.6c4.56,3.91,20.83,20.18,20.83,20.18,0,0,1.3,5.86-3.26,3.91-3.26-3.26-20.83-21.48-20.83-21.48Z"/>
      <path class="cls-1" d="M161.28,104.22h13.71s2.56.65,2.56,3.26-.65,3.26-3.26,3.26h-13.02s-3.45-.65-3.35-3.26c.1-2.6,3.35-3.26,3.35-3.26Z"/>
      <path class="cls-1" d="M173.46,118.62s-23.9-.08-29.04,0c-4.09.51-9.51-6.05-10.71-7.57,2.51-1.97,4.13-5.02,4.13-8.45,0-5.93-4.81-10.74-10.74-10.74s-10.74,4.81-10.74,10.74,4.81,10.74,10.74,10.74c.37,0,.74-.02,1.11-.06.07,1.7,5.99,6.31,7.51,8.65,1.78,2.73,4.89,2.48,4.89,2.48h31.09c2.6,0,3.91,0,3.91-2.6s-2.14-3.18-2.14-3.18ZM127.03,109.43c-3.71,0-6.72-3.01-6.72-6.72s3.01-6.72,6.72-6.72,6.72,3.01,6.72,6.72-3.01,6.72-6.72,6.72Z"/>
      <path class="cls-1" d="M128.98,54.97c-4.79,0-8.67,3.88-8.67,8.67s3.88,8.67,8.67,8.67,8.67-3.88,8.67-8.67-3.88-8.67-8.67-8.67ZM128.92,69.16c-3,0-5.42-2.43-5.42-5.42s2.43-5.42,5.42-5.42,5.42,2.43,5.42,5.42-2.43,5.42-5.42,5.42Z"/>
      <path class="cls-1" d="M175.15,134.17h-88.29c-.61,0-1.17.24-1.59.62-1.27-4.11-5.09-7.1-9.62-7.1-5.56,0-10.07,4.51-10.07,10.07s4.51,10.07,10.07,10.07c4.92,0,9.01-3.53,9.89-8.19.38.25.84.4,1.33.4h22.49c-2.53,2.88-8.54,9.68-10.58,11.72-2.6,2.6-1.95,5.53-1.95,5.53v28c0,1.62,1.31,2.93,2.93,2.93s2.93-1.31,2.93-2.93v-28c0-2.93,1.3-3.58,1.3-3.58l12.85-13.67h58.32c1.33,0,2.41-1.08,2.41-2.41v-1.05c0-1.33-1.08-2.41-2.41-2.41ZM74.81,142.63c-2.7,0-4.88-2.19-4.88-4.88s2.19-4.88,4.88-4.88,4.88,2.19,4.88,4.88-2.19,4.88-4.88,4.88Z"/>
    </g>
  </g>
  <g id="Cerebro_contorno" data-name="Cerebro contorno">
    <path class="cls-1" d="M200.34,226.16s3.26-4.1,5.86-2.48c2.6,1.63,4.25,1.45-1.78,8.7-6.03,7.25-21,36.55-56.49,24.83-35.48-11.72-26.37-46.55-26.37-46.55,0,0-33.85,14.04-55.99-11.37-22.14-25.41-20.18-43.64-17.58-54.71,2.6-11.07,5.32-12.36,5.27-20.18s11.26-21.8,21.55-24.25c-.13-12.87,3.58-28.29,29.4-30.99,5.63-14.42,21.91-37.86,49.25-25.49,12.37-15.63,28.27-27.34,49.62-1.95,5.72-6.51,31.76-28.62,51.3.34,9.11-2.29,42.88-10.55,54.32,27.11,15.34-.1,30.97,13.91,29.34,30.99,11.39,7.32,27.67,18.39,15.95,39.22,14.32,14.97,20.18,24.74,6.51,43.62,1.95,5.21-1.95,7.16-7.16,2.6-5.21-4.56,3.58-8.14,6.84-12.04,3.26-3.91,7.16-22.14-14.97-30.93,6.51-8.79,9.06-31.58-12.72-35.16-3.55.33-3.86-1.94-3.06-7.32.81-5.38,3.52-24.26-26.16-23.61-2.99-2.6-2.99-39.06-51.16-26.04-4.56-7.16-21.79-31.9-44.75-.98-.17,23.76,0,115.06,0,115.06l-7.01-.47V51.57s-5.38-17.93-22.38-16.98c-17.01.95-20.04,16.64-20.04,16.64,0,0-42.83-18.3-46.92,28.9-13.21-3.58-29.45-4.05-27.51,25.16-.67,3.16-18.89,1.21-22.8,25.3,0,12.37-4.56,13.02-4.56,25.39s4.76,46.88,45.02,49.81c14.88-.33,20.45-3.29,23.01,0,4.56,5.86,1.3,7.16,2.6,15.63.72,4.7,11.09,27.67,33.38,29.3s40.19-24.54,40.19-24.54Z"/>
    <path class="cls-1" d="M272.61,295.63v-27.34s3.26-4.02,7.81-1.36,19.53,14.38,34.51,2.66c5.21-4.56,9.77-14.32,9.11-23.44h17.58s-1.3,6.51-9.11,5.86c-3.26-.65-1.39,5.86-4.27,11.07-2.89,5.21-10.7,20.18-31.53,18.88,0,0-14-2.93-17.25-8.14,0,10.42.98,21.81.98,21.81,0,0-.33,1.63-4.88,1.63-1.95,0-2.93-1.63-2.93-1.63Z"/>
  </g>
</svg>